<svg width="34" height="34" viewBox="0 0 34 34" fill="none" xmlns="http://www.w3.org/2000/svg">
<path d="M32.45 14.9371L32.45 14.9371L31.0335 7.02233C30.7321 5.33763 29.8585 3.81047 28.5606 2.70868C27.2624 1.60658 25.6224 1.0006 23.926 1H23.9256H10.6994H9.69938V2V20.9955V21.1467L9.74406 21.2911L12.5786 30.4532L12.5932 30.5006L12.6125 30.5463C13.2009 31.9411 14.7821 33.3381 16.876 32.9295L16.8763 32.9294C19.5344 32.4096 22.5954 30.2453 22.5954 26.5359V23.5785H25.3388C25.3389 23.5785 25.3389 23.5785 25.339 23.5785C26.4002 23.5786 27.4479 23.3416 28.4079 22.8849C29.3679 22.4282 30.216 21.7632 30.8931 20.9382C31.5702 20.1132 32.0598 19.1482 32.3285 18.1116C32.5972 17.0751 32.6387 15.9915 32.45 14.9371ZM7.58623 21.9955H8.58623V20.9955V2V1H7.58623C6.07705 1 4.63315 1.60984 3.57121 2.68977C2.50984 3.76914 1.9165 5.22955 1.9165 6.74888V16.2466C1.9165 17.7659 2.50984 19.2264 3.57121 20.3057C4.63315 21.3857 6.07705 21.9955 7.58623 21.9955Z" stroke="white" stroke-width="2"/>
</svg>
