<svg width="30" height="30" viewBox="0 0 30 30" fill="none" xmlns="http://www.w3.org/2000/svg">
<path d="M18.9962 9.4208H22.8033C23.7309 9.42066 24.6473 9.62433 25.4875 10.0174C26.3277 10.4105 27.0713 10.9834 27.6657 11.6955C28.26 12.4077 28.6907 13.2418 28.9272 14.1387C29.1636 15.0357 29.2001 15.9737 29.0341 16.8863L27.5935 24.8014C27.3282 26.2598 26.5596 27.5789 25.4216 28.5289C24.2836 29.4789 22.8483 29.9995 21.366 30H7.91508V11.0038L10.7977 1.84133C11.2663 0.749047 12.4757 -0.24192 14.0018 0.0525211C16.4222 0.516344 18.9962 2.40172 18.9962 5.46327V9.4208ZM4.74905 11.0038C3.48952 11.0038 2.28158 11.5042 1.39096 12.3948C0.500345 13.2854 0 14.4933 0 15.7529V25.251C0 26.5105 0.500345 27.7184 1.39096 28.609C2.28158 29.4997 3.48952 30 4.74905 30V11.0038Z" fill="#2B73FF"/>
</svg>
