<svg width="30" height="30" viewBox="0 0 30 30" fill="none" xmlns="http://www.w3.org/2000/svg">
<path d="M19.5954 20.5785H23.339C24.2511 20.5786 25.1521 20.3749 25.9783 19.9819C26.8045 19.5888 27.5357 19.016 28.1201 18.3038C28.7046 17.5917 29.128 16.7576 29.3605 15.8607C29.593 14.9638 29.6289 14.0258 29.4657 13.1132L28.0492 5.19843C27.7883 3.74004 27.0325 2.42096 25.9135 1.47103C24.7945 0.521094 23.3832 0.000517461 21.9256 0H8.69938V18.9955L11.5339 28.1577C11.9947 29.2499 13.1839 30.2408 14.6844 29.948C17.0644 29.4826 19.5954 27.5957 19.5954 24.5359V20.5785ZM5.58623 18.9955C4.34774 18.9955 3.15998 18.4952 2.28424 17.6046C1.40849 16.714 0.916504 15.5061 0.916504 14.2466V4.74888C0.916504 3.4894 1.40849 2.2815 2.28424 1.39091C3.15998 0.500327 4.34774 0 5.58623 0V18.9955Z" fill="white"/>
</svg>
