<svg width="34" height="34" viewBox="0 0 34 34" fill="none" xmlns="http://www.w3.org/2000/svg">
<path d="M24.8032 10.4208H21.9962V7.46327C21.9962 3.74061 18.8774 1.58562 16.1906 1.07051C14.0837 0.664327 12.48 2.04552 11.8787 3.44709L11.8589 3.49327L11.8438 3.54121L8.96117 12.7037L8.91508 12.8502V13.0038V32V33H9.91508H23.366H23.3663C25.0828 32.9994 26.7447 32.3966 28.0624 31.2966C29.3801 30.1966 30.2701 28.6692 30.5774 26.9804C30.5774 26.9804 30.5774 26.9804 30.5774 26.9804L32.0179 19.0654L32.0179 19.0653C32.2102 18.0085 32.1679 16.9224 31.8941 15.8838C31.6203 14.8452 31.1217 13.8794 30.4334 13.0548C29.7452 12.2301 28.8841 11.5668 27.9112 11.1116C26.9384 10.6565 25.8774 10.4207 24.8033 10.4208C24.8033 10.4208 24.8032 10.4208 24.8032 10.4208ZM7.74905 13.0038V12.0038H6.74905C5.2243 12.0038 3.76201 12.6095 2.68386 13.6877C1.6057 14.7658 1 16.2281 1 17.7529V27.251C1 28.7757 1.6057 30.238 2.68386 31.3161C3.76201 32.3943 5.2243 33 6.74905 33H7.74905V32V13.0038Z" stroke="#2B73FF" stroke-width="2"/>
</svg>
